<svg width="1200" height="750" viewBox="0 0 1200 750" fill="none" xmlns="http://www.w3.org/2000/svg">
  <rect width="1200" height="750" fill="#09090B"/>
  <rect x="56" y="54" width="1088" height="642" fill="#18181B" stroke="#27272A"/>
  <rect x="96" y="108" width="1008" height="88" fill="#09090B" stroke="#27272A"/>
  <rect x="96" y="236" width="296" height="374" fill="#09090B" stroke="#27272A"/>
  <rect x="452" y="236" width="296" height="374" fill="#09090B" stroke="#27272A"/>
  <rect x="808" y="236" width="296" height="374" fill="#09090B" stroke="#27272A"/>
  <rect x="132" y="140" width="178" height="14" fill="#34D399"/>
  <rect x="752" y="132" width="112" height="34" fill="#064E3B"/>
  <rect x="892" y="132" width="112" height="34" fill="#27272A"/>
  <path d="M244 354H600H956" stroke="#3F3F46" stroke-width="4"/>
  <circle cx="244" cy="354" r="42" fill="#064E3B" stroke="#34D399" stroke-width="4"/>
  <circle cx="600" cy="354" r="42" fill="#0C4A6E" stroke="#38BDF8" stroke-width="4"/>
  <circle cx="956" cy="354" r="42" fill="#27272A" stroke="#52525B" stroke-width="4"/>
  <rect x="132" y="476" width="160" height="12" fill="#52525B"/>
  <rect x="132" y="520" width="212" height="10" fill="#3F3F46"/>
  <rect x="488" y="476" width="176" height="12" fill="#52525B"/>
  <rect x="488" y="520" width="208" height="10" fill="#3F3F46"/>
  <rect x="844" y="476" width="132" height="12" fill="#52525B"/>
  <rect x="844" y="520" width="196" height="10" fill="#3F3F46"/>
  <path d="M328 354L364 354" stroke="#34D399" stroke-width="6"/>
  <path d="M684 354L720 354" stroke="#38BDF8" stroke-width="6"/>
</svg>
